<svg width="40" height="40" viewBox="0 0 43 43" fill="none" xmlns="http://www.w3.org/2000/svg">
<path d="M33.0327 23.9192C33.8726 23.9337 34.5652 23.2646 34.5797 22.4247C34.5942 21.5848 33.9251 20.8922 33.0852 20.8777L33.0327 23.9192ZM8.94321 20.9066C8.33906 21.4902 8.32244 22.4531 8.90609 23.0573L18.4172 32.9024C19.0009 33.5066 19.9638 33.5232 20.5679 32.9396C21.1721 32.3559 21.1887 31.393 20.605 30.7889L12.1507 22.0376L20.902 13.5833C21.5061 12.9996 21.5227 12.0367 20.9391 11.4326C20.3554 10.8284 19.3925 10.8118 18.7884 11.3955L8.94321 20.9066ZM33.0852 20.8777L10.0262 20.4797L9.97376 23.5213L33.0327 23.9192L33.0852 20.8777Z" fill="rgba(29, 29, 29, 0.75)"/>
</svg>
