<svg width="64" height="50" viewBox="0 0 64 50" fill="none" xmlns="http://www.w3.org/2000/svg">
<path d="M59 0.25H5C3.80689 0.251191 2.66299 0.72568 1.81934 1.56934C0.97568 2.41299 0.501191 3.55689 0.5 4.75V45.25C0.501191 46.4431 0.97568 47.587 1.81934 48.4307C2.66299 49.2743 3.80689 49.7488 5 49.75H59C60.1931 49.7488 61.337 49.2743 62.1807 48.4307C63.0243 47.587 63.4988 46.4431 63.5 45.25V4.75C63.4988 3.55689 63.0243 2.41299 62.1807 1.56934C61.337 0.72568 60.1931 0.251191 59 0.25ZM5 4.75H29.75V45.25H5V4.75ZM34.25 45.25V4.75H59V45.25H34.25Z" fill="#23A6F0"/>
</svg>
