<svg width="20" height="20" viewBox="0 0 20 20" fill="none" xmlns="http://www.w3.org/2000/svg">
<path d="M19.0967 7.41243C19.039 7.24262 18.9329 7.09341 18.7914 6.98322C18.65 6.87303 18.4793 6.80669 18.3005 6.79238L13.0714 6.37688L10.8086 1.36786C10.7365 1.20653 10.6193 1.0695 10.4711 0.97332C10.3229 0.877135 10.15 0.825903 9.97327 0.825806C9.79658 0.825709 9.62363 0.876751 9.4753 0.972773C9.32698 1.0688 9.20961 1.20569 9.13737 1.36694L6.87455 6.37688L1.6454 6.79238C1.46971 6.8063 1.30175 6.87054 1.16161 6.97742C1.02147 7.08429 0.915094 7.22928 0.855199 7.39503C0.795304 7.56079 0.784429 7.74028 0.823877 7.91205C0.863325 8.08383 0.951424 8.24059 1.07763 8.36361L4.94194 12.1307L3.57526 18.0487C3.53377 18.2278 3.54707 18.4153 3.61344 18.5868C3.67981 18.7583 3.79619 18.9058 3.94748 19.0103C4.09877 19.1149 4.27797 19.1715 4.46185 19.1729C4.64572 19.1743 4.82577 19.1204 4.97863 19.0182L9.97297 15.6886L14.9673 19.0182C15.1235 19.1219 15.3078 19.1753 15.4953 19.1712C15.6828 19.1671 15.8645 19.1057 16.0161 18.9952C16.1676 18.8847 16.2817 18.7305 16.3429 18.5532C16.4042 18.376 16.4097 18.1842 16.3588 18.0037L14.6811 12.1334L18.8417 8.38929C19.1141 8.14347 19.2141 7.76007 19.0967 7.41243Z" fill="#F3CD03"/>
</svg>
