<svg width="61" height="37" viewBox="0 0 61 37" fill="none" xmlns="http://www.w3.org/2000/svg">
<path d="M60.7599 1.86C60.4555 1.12695 59.8729 0.544425 59.1399 0.24C58.7792 0.0862769 58.3919 0.00473996 57.9999 0H42.9999C42.2042 0 41.4412 0.316071 40.8786 0.87868C40.3159 1.44129 39.9999 2.20435 39.9999 3C39.9999 3.79565 40.3159 4.55871 40.8786 5.12132C41.4412 5.68393 42.2042 6 42.9999 6H50.7699L33.9999 22.77L24.1299 12.87C23.851 12.5888 23.5192 12.3656 23.1536 12.2133C22.788 12.061 22.3959 11.9826 21.9999 11.9826C21.6038 11.9826 21.2117 12.061 20.8461 12.2133C20.4806 12.3656 20.1488 12.5888 19.8699 12.87L1.86988 30.87C1.58869 31.1489 1.36551 31.4807 1.2132 31.8463C1.0609 32.2118 0.982483 32.604 0.982483 33C0.982483 33.396 1.0609 33.7882 1.2132 34.1537C1.36551 34.5193 1.58869 34.8511 1.86988 35.13C2.14877 35.4112 2.48057 35.6344 2.84615 35.7867C3.21173 35.939 3.60384 36.0174 3.99988 36.0174C4.39591 36.0174 4.78803 35.939 5.15361 35.7867C5.51919 35.6344 5.85099 35.4112 6.12988 35.13L21.9999 19.23L31.8699 29.13C32.1488 29.4112 32.4806 29.6344 32.8461 29.7867C33.2117 29.939 33.6038 30.0174 33.9999 30.0174C34.3959 30.0174 34.788 29.939 35.1536 29.7867C35.5192 29.6344 35.851 29.4112 36.1299 29.13L54.9999 10.23V18C54.9999 18.7956 55.3159 19.5587 55.8786 20.1213C56.4412 20.6839 57.2042 21 57.9999 21C58.7955 21 59.5586 20.6839 60.1212 20.1213C60.6838 19.5587 60.9999 18.7956 60.9999 18V3C60.9951 2.60797 60.9136 2.22067 60.7599 1.86Z" fill="#23A6F0"/>
</svg>
