<svg width="28" height="29" viewBox="0 0 28 29" fill="none" xmlns="http://www.w3.org/2000/svg">
<circle cx="14" cy="14.5" r="14" fill="#23A6F0"/>
<path fill-rule="evenodd" clip-rule="evenodd" d="M19.168 15.2878C19.5822 15.2878 19.918 14.952 19.918 14.5378C19.918 14.1236 19.5822 13.7878 19.168 13.7878L14.7879 13.7878L14.7879 9.40771C14.7879 8.9935 14.4521 8.65771 14.0379 8.65771C13.6237 8.65771 13.2879 8.9935 13.2879 9.40771L13.2879 13.7878L8.90779 13.7878C8.49358 13.7878 8.15779 14.1236 8.15779 14.5378C8.15779 14.952 8.49358 15.2878 8.90779 15.2878L13.2879 15.2878L13.2879 19.6679C13.2879 20.0821 13.6237 20.4179 14.0379 20.4179C14.4521 20.4179 14.7879 20.0821 14.7879 19.6679L14.7879 15.2878L19.168 15.2878Z" fill="#FCFCFC"/>
</svg>
